<?xml version="1.0" standalone="no"?><!DOCTYPE svg PUBLIC "-//W3C//DTD SVG 1.1//EN" "http://www.w3.org/Graphics/SVG/1.1/DTD/svg11.dtd"><svg t="1746177209340" class="icon" viewBox="0 0 1497 1024" version="1.1" xmlns="http://www.w3.org/2000/svg" p-id="5563" xmlns:xlink="http://www.w3.org/1999/xlink" width="292.3828125" height="200"><path d="M814.180392 600.345098c-95.372549 0-173.678431 78.305882-173.678431 173.678431s78.305882 173.678431 173.678431 173.678432 173.678431-78.305882 173.678432-173.678432-77.301961-173.678431-173.678432-173.678431zM268.047059 428.67451c55.215686 0 99.388235-45.176471 99.388235-99.388235s-45.176471-99.388235-99.388235-99.388236-99.388235 45.176471-99.388235 99.388236 44.172549 99.388235 99.388235 99.388235z m355.388235 15.058823c32.12549 17.066667 69.270588 27.105882 108.42353 27.105883 128.501961 0 233.913725-104.407843 233.913725-233.913726S861.364706 4.015686 731.858824 4.015686 497.945098 108.423529 497.945098 237.929412c0 73.286275 33.129412 137.537255 85.333333 180.705882L280.094118 721.819608c-26.101961-17.066667-56.219608-26.101961-89.34902-26.101961-90.352941 0-163.639216 73.286275-163.639216 163.639216S100.392157 1022.996078 190.745098 1022.996078s163.639216-73.286275 163.639216-163.639215c0-40.156863-15.058824-78.305882-39.152941-106.415687l308.203921-309.207843z m-371.45098-145.568627l586.290196 468.831372-20.078432 26.101961L230.901961 324.266667l21.082353-26.101961z" fill="#E6E6E6" p-id="5564"></path></svg>