<?xml version="1.0" standalone="no"?><!DOCTYPE svg PUBLIC "-//W3C//DTD SVG 1.1//EN" "http://www.w3.org/Graphics/SVG/1.1/DTD/svg11.dtd"><svg t="1746177192087" class="icon" viewBox="0 0 1024 1024" version="1.1" xmlns="http://www.w3.org/2000/svg" p-id="4512" xmlns:xlink="http://www.w3.org/1999/xlink" width="200" height="200"><path d="M64.013719 519.364459l460.948167-460.953655 460.953655 460.953655-460.953655 460.948167z" fill="#FFFFFF" p-id="4513"></path><path d="M440.056592 624.771704v-2.195069l4.829153-1.426796a1.920686 1.920686 0 0 0 0.878028-0.49389 1.646302 1.646302 0 0 0 0-0.987782v-33.365059h-9.383923a1.481672 1.481672 0 0 0-0.823151 0 1.536549 1.536549 0 0 0-0.439014 0.823151l-1.152412 6.310826h-3.402358v-10.975349h37.151554v10.975349h-3.457234l-1.152412-6.255949a1.207288 1.207288 0 0 0-0.439014-0.823151 1.317042 1.317042 0 0 0-0.768274 0H452.184352v33.365059a1.317042 1.317042 0 0 0 0.32926 0.987781 2.085316 2.085316 0 0 0 0.823151 0.493891l4.829153 1.426795v2.19507zM493.067524 625.594855a21.621436 21.621436 0 0 1-10.975348-2.68896 17.17642 17.17642 0 0 1-6.859593-7.627867 26.670096 26.670096 0 0 1-2.3597-11.743623 24.968917 24.968917 0 0 1 2.3597-10.865595 18.328832 18.328832 0 0 1 6.969346-7.73762 23.377492 23.377492 0 0 1 22.279957 0 17.615434 17.615434 0 0 1 6.694963 7.73762 27.822508 27.822508 0 0 1 2.140193 10.975349 28.755413 28.755413 0 0 1-1.152412 8.121757 20.633655 20.633655 0 0 1-3.621865 7.0791 17.286174 17.286174 0 0 1-6.310825 4.993784 21.127546 21.127546 0 0 1-9.164416 1.756055z m0.493891-3.457234a11.743623 11.743623 0 0 0 7.24373-2.249947 13.664309 13.664309 0 0 0 4.335262-6.201072 27.10911 27.10911 0 0 0 1.426796-9.109539 30.840729 30.840729 0 0 0-1.536549-10.371704 13.828939 13.828939 0 0 0-4.664523-6.694962 12.45702 12.45702 0 0 0-7.847374-2.3597 11.249732 11.249732 0 0 0-7.463237 2.3597 13.609432 13.609432 0 0 0-4.170633 6.310825 27.438371 27.438371 0 0 0-1.317041 8.670525 32.487031 32.487031 0 0 0 1.481672 10.316827 14.871597 14.871597 0 0 0 4.664523 6.859593 12.072883 12.072883 0 0 0 7.847374 2.634084zM516.55477 624.771704v-2.195069l3.512111-1.152412a3.237728 3.237728 0 0 0 1.042658-0.713398 7.0791 7.0791 0 0 0 0.878028-0.987781l11.633869-15.420364-10.975348-16.463023a4.390139 4.390139 0 0 0-0.823151-0.932905 2.414577 2.414577 0 0 0-0.987782-0.603644l-3.457234-1.262165v-2.140193h15.694748v2.140193l-3.896249 1.756056 7.0791 10.261951 1.810932 3.457234 9.60343-13.609432-3.786495-1.865809v-2.140193h12.950911v2.140193l-3.237728 1.262165a2.414577 2.414577 0 0 0-0.932904 0.548768 8.451018 8.451018 0 0 0-0.932905 1.042658l-10.975348 15.036227 11.578992 16.956913a4.938907 4.938907 0 0 0 0.823151 0.987782 2.634084 2.634084 0 0 0 0.932905 0.603644l3.402358 1.207288v2.19507h-16.024009v-2.19507l3.951126-1.701179-7.298607-10.975348-1.865809-3.402358-10.042444 14.048446 3.786495 1.810932v2.19507zM561.443944 624.771704v-2.195069l4.7194-1.426796a1.481672 1.481672 0 0 0 0.823151-0.49389 1.317042 1.317042 0 0 0 0.329261-0.987782v-31.82851a1.207288 1.207288 0 0 0-0.329261-0.932905 2.085316 2.085316 0 0 0-0.823151-0.49389l-4.7194-1.481672v-2.140193h17.834941v2.140193l-4.664523 1.481672a2.085316 2.085316 0 0 0-0.823151 0.49389 1.317042 1.317042 0 0 0-0.32926 0.932905v31.82851a1.317042 1.317042 0 0 0 0.32926 0.987782 2.085316 2.085316 0 0 0 0.823151 0.49389l4.664523 1.426796v2.195069zM620.107181 615.387781h1.481672v3.896249a39.291747 39.291747 0 0 1-4.060879 2.908467 26.77985 26.77985 0 0 1-5.487674 2.469454 18.219078 18.219078 0 0 1-5.981565 0.987781 21.950697 21.950697 0 0 1-10.975348-2.52433 17.725188 17.725188 0 0 1-7.298607-7.463237 25.133548 25.133548 0 0 1-2.52433-11.798499 23.981136 23.981136 0 0 1 2.688961-11.63387 19.426367 19.426367 0 0 1 7.40836-7.627867 20.962915 20.962915 0 0 1 10.975348-2.68896 38.962487 38.962487 0 0 1 4.829153 0.32926l5.103537 0.878028 4.225509 0.932905v10.700964h-3.457234l-1.097535-5.981564a1.152412 1.152412 0 0 0-0.548768-0.768275L614.619507 587.181136a18.219078 18.219078 0 0 0-4.006002-1.426795 20.139764 20.139764 0 0 0-4.609646-0.493891 12.29239 12.29239 0 0 0-9.768061 4.225509 18.767846 18.767846 0 0 0-3.786495 12.896035 20.688532 20.688532 0 0 0 4.006002 13.828938 14.706967 14.706967 0 0 0 11.688746 4.664524 11.853376 11.853376 0 0 0 4.55477-0.823152 17.17642 17.17642 0 0 0 3.841372-2.030439z" p-id="4514"></path><path d="M530.438585 258.963344a95.869668 95.869668 0 0 1 31.718757 5.103537 81.272454 81.272454 0 0 1 25.792069 15.091104 74.961629 74.961629 0 0 1 26.670096 47.413505v0.713397a41.322186 41.322186 0 0 1 0.768274 7.627868 43.462379 43.462379 0 0 1-2.743837 15.804501 41.322186 41.322186 0 0 1-8.341264 13.389925 59.102251 59.102251 0 0 1-14.267953 11.414362 90.656377 90.656377 0 0 1-20.523902 8.615649 21.456806 21.456806 0 0 0-15.584994 20.578778v0.32926a3.896249 3.896249 0 0 1-2.19507 0.932905h-0.932905a20.688532 20.688532 0 0 0-8.725402-1.975563 20.414148 20.414148 0 0 0-10.646087 3.018221 3.566988 3.566988 0 0 1-1.975563 0.548768 4.55477 4.55477 0 0 1-2.634084-0.932905 20.194641 20.194641 0 0 0-10.975348-3.073098 19.53612 19.53612 0 0 0-9.274169 2.304824h-1.371919a2.52433 2.52433 0 0 1-1.756056-0.713398 1.207288 1.207288 0 0 1 0-0.493891 22.938478 22.938478 0 0 0-15.914255-21.950696 85.333333 85.333333 0 0 1-18.164201-8.231512 58.224223 58.224223 0 0 1-12.731404-10.700964 42.748982 42.748982 0 0 1-10.975349-28.97492 44.889175 44.889175 0 0 1 0.768275-7.682744v-0.713397a74.522615 74.522615 0 0 1 26.176205-47.468382 81.711468 81.711468 0 0 1 25.792069-14.871597 95.430654 95.430654 0 0 1 31.718757-5.103537m0-17.395927a102.893891 102.893891 0 0 0-68.595927 24.09089A92.138049 92.138049 0 0 0 429.410504 323.772776a60.035155 60.035155 0 0 0 14.103322 51.36463 84.400429 84.400429 0 0 0 38.41372 24.036013 5.487674 5.487674 0 0 1 3.896248 5.487674 17.450804 17.450804 0 0 0 5.158414 12.896035 19.920257 19.920257 0 0 0 12.896034 5.762057h2.249947a15.694748 15.694748 0 0 0 8.396141-1.975562 2.3597 2.3597 0 0 1 1.207288-0.329261 2.52433 2.52433 0 0 1 1.262165 0.329261 21.950697 21.950697 0 0 0 12.12776 3.566988 21.017792 21.017792 0 0 0 10.975349-3.073098 3.018221 3.018221 0 0 1 1.646302-0.49389 2.798714 2.798714 0 0 1 1.426795 0.384137 16.463023 16.463023 0 0 0 7.682744 1.591425h2.085316a20.908039 20.908039 0 0 0 13.170418-6.255948 17.17642 17.17642 0 0 0 5.158414-12.731404 3.951125 3.951125 0 0 1 2.908467-3.786495 88.571061 88.571061 0 0 0 42.968489-25.023795 58.718114 58.718114 0 0 0 15.639871-40.773419 56.468167 56.468167 0 0 0-1.097534-10.975348 92.138049 92.138049 0 0 0-32.377278-57.840086A101.686602 101.686602 0 0 0 530.438585 241.457663z" p-id="4515"></path></svg>